<svg width="1774" height="871" xmlns="http://www.w3.org/2000/svg" xmlns:xlink="http://www.w3.org/1999/xlink" xml:space="preserve" overflow="hidden"><g transform="translate(-411 -535)"><path d="M1591.73 1100.13C1598.85 1100.13 1603.8 1102.78 1606.57 1108.08 1609.23 1113.14 1609.34 1119.28 1606.89 1126.5 1604.55 1133.39 1600.23 1139.43 1593.95 1144.63 1587.33 1150.07 1580.64 1152.79 1573.85 1152.79 1566.59 1152.79 1561.57 1150.22 1558.79 1145.07 1556.18 1140.15 1556.12 1134.01 1558.63 1126.65 1560.96 1119.76 1565.32 1113.67 1571.69 1108.37 1578.27 1102.88 1584.95 1100.13 1591.73 1100.13ZM828.615 1100.13C835.736 1100.13 840.683 1102.78 843.455 1108.08 846.117 1113.14 846.221 1119.28 843.769 1126.5 841.43 1133.39 837.116 1139.43 830.828 1144.63 824.217 1150.07 817.519 1152.79 810.735 1152.79 803.47 1152.79 798.45 1150.22 795.677 1145.07 793.062 1140.15 793.006 1134.01 795.508 1126.65 797.845 1119.76 802.2 1113.67 808.57 1108.37 815.149 1102.88 821.831 1100.13 828.615 1100.13ZM1469.99 1096.88C1476.34 1096.88 1480.72 1097.75 1483.11 1099.48 1486.19 1101.75 1486.73 1105.82 1484.74 1111.69 1481.89 1120.07 1475.2 1124.26 1464.66 1124.26 1461.44 1124.26 1458.44 1124.04 1455.65 1123.61 1454.19 1123.37 1453.5 1123.13 1453.58 1122.89 1453.94 1121.83 1454.47 1120.22 1455.15 1118.05 1455.84 1115.88 1456.37 1114.24 1456.75 1113.14 1459.4 1105.34 1461.15 1100.62 1461.99 1098.98 1462.75 1097.58 1465.42 1096.88 1469.99 1096.88ZM944.058 1096.88C950.41 1096.88 954.782 1097.75 957.177 1099.48 960.258 1101.75 960.801 1105.82 958.805 1111.69 955.96 1120.07 949.269 1124.26 938.732 1124.26 935.508 1124.26 932.503 1124.04 929.715 1123.61 928.256 1123.37 927.568 1123.13 927.65 1122.89 928.01 1121.83 928.534 1120.22 929.222 1118.05 929.909 1115.88 930.441 1114.24 930.817 1113.14 933.466 1105.34 935.213 1100.62 936.057 1098.98 936.82 1097.58 939.487 1096.88 944.058 1096.88ZM1685.4 1076.01C1683.86 1076.01 1682.94 1076.44 1682.64 1077.31 1682.56 1077.55 1682.49 1077.91 1682.42 1078.39 1679.53 1092.02 1673.88 1111.21 1665.47 1135.96 1661.84 1146.65 1658.56 1154.34 1655.63 1159.01 1653.45 1162.43 1651.05 1165.27 1648.4 1167.53 1647.05 1168.69 1644.06 1170.83 1639.43 1173.96 1638.74 1174.44 1638.32 1174.9 1638.17 1175.33 1638.04 1175.72 1638.14 1176.2 1638.48 1176.78 1641.28 1180.44 1643.41 1183.13 1644.9 1184.87 1647.12 1188.82 1648.73 1191.78 1649.75 1193.75 1650.06 1194.38 1650.48 1194.69 1651.01 1194.69 1651.59 1194.69 1652.48 1194.28 1653.67 1193.46 1663.82 1186.82 1672.66 1177.64 1680.19 1165.94 1684.4 1159.34 1688.55 1150.03 1692.64 1137.99 1694.92 1131.29 1698.37 1121.26 1703 1107.9 1707.64 1094.54 1711.08 1084.53 1713.34 1077.89 1713.76 1076.63 1713.28 1076.01 1711.88 1076.01 1710.44 1076.01 1708.27 1076.08 1705.39 1076.22 1702.5 1076.37 1700.33 1076.44 1698.89 1076.44 1697.35 1076.44 1695.1 1076.37 1692.14 1076.22 1689.18 1076.08 1686.94 1076.01 1685.4 1076.01ZM1745.27 1075.86C1743.97 1075.86 1743.18 1076.42 1742.9 1077.52L1742.63 1078.54C1740.42 1086.19 1738.73 1091.95 1737.56 1095.8 1733.06 1110.78 1729.87 1121.01 1728.01 1126.5 1726.17 1131.89 1723.12 1140 1718.85 1150.81 1714.58 1161.62 1711.53 1169.72 1709.69 1175.12 1709.22 1176.51 1709.78 1177.21 1711.36 1177.21 1715.02 1177.21 1720.5 1177.23 1727.79 1177.28 1735.09 1177.33 1740.59 1177.36 1744.3 1177.36 1761.28 1177.36 1771.45 1177.6 1774.8 1178.08 1775.76 1178.22 1776.46 1178.29 1776.89 1178.29 1777.9 1178.29 1778.85 1177.84 1779.74 1176.92 1780.8 1175.77 1782.79 1172.18 1785.7 1166.16 1788.4 1160.62 1790.1 1156.82 1790.8 1154.75 1791.39 1153.01 1791.16 1152.14 1790.1 1152.14 1787.6 1152.14 1783.76 1152.37 1778.57 1152.83 1773.39 1153.29 1769.52 1153.52 1766.97 1153.52 1759.85 1153.52 1756.34 1153.52 1756.43 1153.52 1751.21 1153.18 1748.5 1152.1 1748.3 1150.27 1748.18 1149.21 1748.74 1146.85 1749.98 1143.19 1750.91 1140.44 1751.44 1138.95 1751.57 1138.71 1752.24 1137.75 1753.56 1137.26 1755.53 1137.26L1763.18 1137.26C1772.95 1137.26 1779.15 1137.41 1781.8 1137.7 1785.96 1138.18 1788.05 1138.42 1788.05 1138.42 1789.44 1138.42 1790.3 1137.94 1790.63 1136.97 1791.94 1133.12 1793.44 1129.27 1795.13 1125.42 1798.84 1117.04 1800.53 1113.35 1800.19 1114.36 1800.56 1113.26 1800.17 1112.7 1799.02 1112.7 1798.06 1112.7 1796.72 1112.8 1795.02 1112.99 1792.84 1113.19 1791.48 1113.31 1790.93 1113.35 1784.61 1113.69 1778.42 1113.86 1772.35 1113.86 1771.44 1113.86 1770.27 1113.9 1768.85 1113.97 1767.43 1114.04 1766.48 1114.08 1766 1114.08 1763.69 1114.08 1762.28 1113.62 1761.78 1112.7 1761.17 1111.64 1761.43 1109.48 1762.54 1106.2 1763.6 1103.07 1764.35 1101.22 1764.79 1100.64 1765.78 1099.44 1767.54 1098.83 1770.09 1098.83 1780.29 1098.83 1791.61 1099.36 1804.05 1100.42 1804.76 1100.47 1805.26 1100.5 1805.54 1100.5 1806.51 1100.5 1807.16 1099.99 1807.5 1098.98 1807.91 1097.77 1808.82 1094.37 1810.22 1088.76 1811.62 1083.15 1812.38 1079.79 1812.52 1078.68 1812.77 1076.8 1811.65 1075.86 1809.14 1075.86 1805.63 1075.86 1800.31 1075.96 1793.17 1076.15 1786.03 1076.34 1780.7 1076.44 1777.19 1076.44 1773.63 1076.44 1768.31 1076.34 1761.23 1076.15 1754.15 1075.96 1748.83 1075.86 1745.27 1075.86ZM1026.84 1075.86C1025.54 1075.86 1024.75 1076.42 1024.47 1077.52L1024.2 1078.54C1021.99 1086.19 1020.3 1091.95 1019.13 1095.8 1014.62 1110.78 1011.44 1121.01 1009.57 1126.5 1007.74 1131.89 1004.69 1140 1000.42 1150.81 996.146 1161.62 993.094 1169.72 991.263 1175.12 990.789 1176.51 991.346 1177.21 992.933 1177.21 996.59 1177.21 1002.07 1177.23 1009.36 1177.28 1016.66 1177.33 1022.16 1177.36 1025.87 1177.36 1042.85 1177.36 1053.02 1177.6 1056.37 1178.08 1057.33 1178.22 1058.03 1178.29 1058.46 1178.29 1059.47 1178.29 1060.42 1177.84 1061.31 1176.92 1062.37 1175.77 1064.36 1172.18 1067.27 1166.16 1069.97 1160.62 1071.67 1156.82 1072.37 1154.75 1072.96 1153.01 1072.73 1152.14 1071.67 1152.14 1069.17 1152.14 1065.32 1152.37 1060.14 1152.83 1054.96 1153.29 1051.09 1153.52 1048.54 1153.52 1041.42 1153.52 1037.91 1153.52 1038 1153.52 1032.78 1153.18 1030.07 1152.1 1029.87 1150.27 1029.75 1149.21 1030.31 1146.85 1031.55 1143.19 1032.48 1140.44 1033.01 1138.95 1033.14 1138.71 1033.81 1137.75 1035.13 1137.26 1037.1 1137.26L1044.75 1137.26C1054.52 1137.26 1060.72 1137.41 1063.37 1137.7 1067.53 1138.18 1069.62 1138.42 1069.62 1138.42 1071.01 1138.42 1071.87 1137.94 1072.2 1136.97 1073.51 1133.12 1075.01 1129.27 1076.7 1125.42 1080.41 1117.04 1082.1 1113.35 1081.76 1114.36 1082.13 1113.26 1081.74 1112.7 1080.59 1112.7 1079.62 1112.7 1078.29 1112.8 1076.59 1112.99 1074.41 1113.19 1073.04 1113.31 1072.5 1113.35 1066.18 1113.69 1059.99 1113.86 1053.92 1113.86 1053.01 1113.86 1051.84 1113.9 1050.42 1113.97 1049 1114.04 1048.05 1114.08 1047.57 1114.08 1045.26 1114.08 1043.85 1113.62 1043.35 1112.7 1042.74 1111.64 1043 1109.48 1044.11 1106.2 1045.17 1103.07 1045.92 1101.22 1046.36 1100.64 1047.34 1099.44 1049.11 1098.83 1051.66 1098.83 1061.86 1098.83 1073.18 1099.36 1085.62 1100.42 1086.33 1100.47 1086.83 1100.5 1087.11 1100.5 1088.08 1100.5 1088.73 1099.99 1089.07 1098.98 1089.48 1097.77 1090.39 1094.37 1091.78 1088.76 1093.18 1083.15 1093.95 1079.79 1094.09 1078.68 1094.34 1076.8 1093.22 1075.86 1090.71 1075.86 1087.2 1075.86 1081.88 1075.96 1074.74 1076.15 1067.6 1076.34 1062.27 1076.44 1058.76 1076.44 1055.2 1076.44 1049.88 1076.34 1042.8 1076.15 1035.72 1075.96 1030.4 1075.86 1026.84 1075.86ZM1487.02 1075.43C1481.73 1075.43 1474.6 1075.53 1465.63 1075.72 1452.4 1076.01 1444.95 1076.3 1443.29 1076.59 1441.62 1076.87 1440.68 1077.43 1440.45 1078.25L1440.18 1079.26C1437.22 1090.67 1432.28 1106.56 1425.36 1126.93 1423.55 1132.28 1420.57 1140.3 1416.44 1150.99 1412.3 1161.68 1409.33 1169.67 1407.53 1174.97 1407.13 1176.18 1407.57 1176.92 1408.87 1177.21 1410.16 1177.5 1414.25 1177.64 1421.13 1177.64 1427.15 1177.64 1431.61 1177.55 1434.51 1177.36 1435.2 1177.31 1435.89 1177.26 1436.58 1177.21 1437.06 1177.07 1437.44 1176.58 1437.72 1175.77 1438.83 1172.49 1440.19 1167.6 1441.8 1161.1 1443.4 1154.6 1444.76 1149.71 1445.88 1146.44 1446.71 1143.98 1447.49 1142.75 1448.21 1142.75 1454.61 1142.75 1457.1 1142.71 1455.69 1142.61 1458.75 1142.8 1460.4 1143.84 1460.63 1145.72 1461.43 1155.11 1461.96 1162.21 1462.2 1167.03 1462.33 1170.73 1462.44 1173.53 1462.53 1175.4 1462.63 1176.22 1462.81 1176.71 1463.05 1176.85 1463.16 1176.95 1463.72 1177.07 1464.73 1177.21 1466.89 1177.5 1471.13 1177.64 1477.43 1177.64 1484.79 1177.64 1489.43 1177.5 1491.36 1177.21 1492.37 1177.07 1492.94 1176.83 1493.05 1176.49 1493.47 1175.24 1492.81 1168.54 1491.06 1156.41 1489.31 1144.27 1488.43 1138.23 1488.41 1138.28 1488.64 1137.6 1489.44 1136.88 1490.81 1136.11 1497.59 1132.16 1502.7 1128.09 1506.14 1123.9 1509.59 1119.71 1512.5 1114.1 1514.89 1107.07 1518.47 1096.52 1517.29 1088.46 1511.34 1082.87 1506.1 1077.91 1497.99 1075.43 1487.02 1075.43ZM961.087 1075.43C955.794 1075.43 948.664 1075.53 939.697 1075.72 926.464 1076.01 919.015 1076.3 917.354 1076.59 915.692 1076.87 914.746 1077.43 914.517 1078.25L914.245 1079.26C911.284 1090.67 906.345 1106.56 899.428 1126.93 897.613 1132.28 894.638 1140.3 890.503 1150.99 886.368 1161.68 883.4 1169.67 881.601 1174.97 881.193 1176.18 881.637 1176.92 882.934 1177.21 884.231 1177.5 888.32 1177.64 895.2 1177.64 901.215 1177.64 905.674 1177.55 908.578 1177.36 909.269 1177.31 909.959 1177.26 910.649 1177.21 911.131 1177.07 911.511 1176.58 911.789 1175.77 912.901 1172.49 914.26 1167.6 915.866 1161.1 917.472 1154.6 918.831 1149.71 919.943 1146.44 920.777 1143.98 921.555 1142.75 922.276 1142.75 928.676 1142.75 931.17 1142.71 929.759 1142.61 932.821 1142.8 934.467 1143.84 934.695 1145.72 935.5 1155.11 936.023 1162.21 936.265 1167.03 936.401 1170.73 936.511 1173.53 936.595 1175.4 936.702 1176.22 936.875 1176.71 937.115 1176.85 937.226 1176.95 937.787 1177.07 938.797 1177.21 940.959 1177.5 945.193 1177.64 951.495 1177.64 958.857 1177.64 963.501 1177.5 965.428 1177.21 966.439 1177.07 967.003 1176.83 967.118 1176.49 967.542 1175.24 966.88 1168.54 965.131 1156.41 963.381 1144.27 962.498 1138.23 962.482 1138.28 962.711 1137.6 963.51 1136.88 964.878 1136.11 971.655 1132.16 976.766 1128.09 980.21 1123.9 983.654 1119.71 986.569 1114.1 988.956 1107.07 992.538 1096.52 991.355 1088.46 985.409 1082.87 980.164 1077.91 972.057 1075.43 961.087 1075.43ZM2021.36 1075C2021.31 1075 2018.08 1075.24 2011.66 1075.72 1999.71 1076.63 1991.57 1077.09 1987.23 1077.09 1971.98 1077.09 1960.63 1076.59 1953.18 1075.57 1952.62 1075.53 1952.29 1075.5 1952.19 1075.5 1951.37 1075.5 1950.18 1077.31 1948.62 1080.92 1947.66 1083.18 1946.72 1085.45 1945.81 1087.71 1945.47 1088.43 1944.34 1090.48 1942.43 1093.85 1940.71 1096.93 1939.74 1098.79 1939.53 1099.41 1939.36 1099.89 1939.67 1100.13 1940.44 1100.13 1946.16 1100.13 1954 1099.65 1963.95 1098.69 1959.92 1111.69 1957.27 1120.07 1955.99 1123.83 1954.06 1129.51 1950.93 1138.03 1946.59 1149.4 1942.25 1160.76 1939.11 1169.29 1937.18 1174.97 1936.76 1176.22 1937.18 1176.97 1938.44 1177.21 1940.81 1177.6 1945.1 1177.79 1951.31 1177.79 1956.89 1177.79 1961.19 1177.6 1964.21 1177.21 1965.46 1177.07 1966.18 1176.95 1966.35 1176.85 1966.87 1176.61 1967.28 1176.03 1967.59 1175.12 1969.52 1169.43 1972.19 1160.89 1975.61 1149.47 1979.03 1138.06 1981.7 1129.51 1983.63 1123.83 1985.27 1119.01 1988.3 1110.51 1992.73 1098.33 2005.14 1099.05 2012.25 1099.41 2014.08 1099.41 2015.14 1099.41 2015.83 1098.93 2016.16 1097.97 2016.55 1096.81 2016.99 1095.07 2017.47 1092.73 2017.95 1090.39 2018.39 1088.62 2018.8 1087.42 2019.16 1086.36 2019.82 1084.56 2020.79 1082 2021.67 1079.69 2022.33 1077.89 2022.77 1076.59 2023 1075.77 2023.06 1075.3 2022.96 1075.18 2022.86 1075.06 2022.32 1075 2021.36 1075ZM1890.3 1073.48C1875.96 1073.48 1862.33 1078.82 1849.42 1089.52 1837.05 1099.72 1828.38 1112.15 1823.41 1126.79 1818.27 1141.91 1818.57 1154.43 1824.29 1164.35 1830.15 1174.61 1840.58 1179.74 1855.59 1179.74 1870.26 1179.74 1883.82 1174.47 1896.25 1163.92 1897.69 1162.67 1898.54 1161.66 1898.8 1160.89 1898.98 1160.36 1898.22 1157.42 1896.52 1152.07 1894.86 1146.92 1893.79 1143.91 1893.31 1143.04 1893.01 1142.51 1892.62 1142.25 1892.14 1142.25 1891.9 1142.25 1890.41 1143.16 1887.67 1144.99 1884.38 1147.16 1881.31 1148.85 1878.44 1150.05 1874.07 1151.88 1869.79 1152.79 1865.6 1152.79 1858.53 1152.79 1853.79 1150.1 1851.39 1144.7 1849.18 1139.74 1849.31 1133.6 1851.8 1126.28 1854.25 1119.06 1858.26 1112.99 1863.83 1108.08 1869.86 1102.78 1876.41 1100.13 1883.48 1100.13 1887.57 1100.13 1891.19 1101.1 1894.34 1103.02 1896.4 1104.32 1898.34 1106.13 1900.15 1108.44 1901.66 1110.37 1902.54 1111.33 1902.78 1111.33 1903.36 1111.33 1903.9 1111.14 1904.42 1110.75 1905.53 1110.03 1908.75 1106.73 1914.09 1100.86 1919.43 1094.98 1922.26 1091.59 1922.57 1090.67 1922.85 1089.85 1922.68 1088.91 1922.08 1087.85 1916.48 1078.27 1905.89 1073.48 1890.3 1073.48ZM1600.88 1073.19C1586.01 1073.19 1571.9 1078.42 1558.53 1088.87 1545.44 1099.08 1536.36 1111.67 1531.27 1126.65 1526.2 1141.57 1526.75 1154.12 1532.93 1164.28 1539.21 1174.68 1549.79 1179.88 1564.65 1179.88 1579.62 1179.88 1593.73 1174.73 1607 1164.43 1620.03 1154.26 1629.09 1141.67 1634.19 1126.65 1639.24 1111.76 1638.68 1099.17 1632.51 1088.87 1626.2 1078.42 1615.65 1073.19 1600.88 1073.19ZM837.764 1073.19C822.896 1073.19 808.78 1078.42 795.416 1088.87 782.327 1099.08 773.239 1111.67 768.154 1126.65 763.085 1141.57 763.637 1154.12 769.809 1164.28 776.093 1174.68 786.668 1179.88 801.536 1179.88 816.5 1179.88 830.616 1174.73 843.883 1164.43 856.908 1154.26 865.971 1141.67 871.073 1126.65 876.126 1111.76 875.566 1099.17 869.394 1088.87 863.079 1078.42 852.535 1073.19 837.764 1073.19ZM1349.51 1060.56C1365.77 1060.56 1371.06 1068.91 1365.39 1085.61 1360.06 1101.31 1349.62 1109.15 1334.08 1109.15 1321.19 1109.15 1314.99 1108.44 1315.48 1107 1316.23 1104.78 1317.26 1101.5 1318.55 1097.17 1319.84 1092.83 1320.87 1089.55 1321.62 1087.33 1326.93 1071.7 1329.99 1063.42 1330.81 1062.49 1331.82 1061.2 1338.05 1060.56 1349.51 1060.56ZM714.732 1026.47C712.368 1026.47 708.816 1026.6 704.076 1026.85 699.335 1027.1 695.784 1027.23 693.42 1027.23 691.344 1027.23 688.211 1027.12 684.023 1026.9 679.836 1026.69 676.668 1026.58 674.519 1026.58 672.371 1026.58 671.029 1027.37 670.492 1028.95 667.67 1037.26 663.691 1049.72 658.559 1066.31 653.426 1082.9 649.448 1095.36 646.625 1103.67 643.972 1111.48 639.874 1123.18 634.33 1138.77 628.786 1154.36 624.687 1166.07 622.034 1173.88 621.402 1175.74 622.063 1176.85 624.018 1177.21 629.912 1177.57 634.482 1177.71 637.729 1177.64L669.702 1178.07C672.828 1178.14 680.788 1178.32 693.581 1178.61 703.367 1178.9 711.339 1179.04 717.497 1179.04 720.076 1179.04 721.568 1178.97 721.976 1178.82 723.242 1178.47 724.371 1177.35 725.363 1175.49 730.171 1166.6 734.656 1156.03 738.817 1143.77 739.378 1142.13 738.691 1141.3 736.758 1141.3 730.313 1141.3 720.547 1141.64 707.46 1142.32 694.374 1143 684.608 1143.34 678.163 1143.34 676.373 1143.34 675.442 1143.34 675.37 1143.34 674.441 1143.13 674.087 1142.59 674.308 1141.73 674.528 1140.87 674.749 1140.01 674.969 1139.15 676.333 1134.92 678.573 1128.22 681.688 1119.05L691.433 1090.66C701.683 1063.64 709.525 1043.39 714.96 1029.92L715.54 1028.52C716.075 1027.16 715.806 1026.47 714.732 1026.47ZM1339.1 1026.37C1320.05 1026.37 1307.61 1026.73 1301.78 1027.44 1299.39 1027.73 1298.04 1028.55 1297.72 1029.92L1297.31 1031.42C1290.83 1056.22 1283.76 1079.87 1276.12 1102.38 1273.42 1110.34 1269.24 1122.29 1263.57 1138.24 1257.9 1154.18 1253.72 1166.14 1251.02 1174.09 1250.31 1176.17 1251 1177.21 1253.07 1177.21 1257.44 1177.21 1263.95 1177.34 1272.61 1177.59 1281.26 1177.84 1287.77 1177.96 1292.14 1177.96 1293.64 1177.96 1294.67 1177.14 1295.23 1175.49 1296.33 1172.26 1297.66 1167.39 1299.23 1160.87 1300.8 1154.35 1302.14 1149.44 1303.26 1146.14 1304.16 1143.49 1306.15 1142.16 1309.23 1142.16 1312.1 1142.16 1316.36 1142.32 1322.01 1142.64 1327.67 1142.97 1331.93 1143.13 1334.79 1143.13 1351.91 1143.13 1367.27 1137.43 1380.88 1126.03 1393.63 1115.28 1402.94 1101.23 1408.83 1083.89 1414.58 1066.97 1413.93 1053.28 1406.88 1042.82 1399.95 1032.64 1388.09 1027.3 1371.28 1026.8 1361.07 1026.51 1350.34 1026.37 1339.1 1026.37ZM1266.7 821.869 1293.1 900.061 1239.94 900.061ZM1232.4 746.014 1138.11 991.375 1205.46 991.375 1222.34 948.594 1310.34 948.594 1326.14 991.375 1394.21 991.375 1301.9 746.014ZM855.115 746.014 813.449 991.375 877.025 991.375 897.839 850.09 954.352 991.375 979.649 991.375 1038.86 850.09 1056.98 991.375 1120.73 991.375 1083.74 746.014 1020.16 746.014 967.726 876.873 918.152 746.014ZM1758.33 740.801C1727.08 740.801 1699.25 750.688 1674.82 770.46 1643.69 795.745 1628.13 828.76 1628.13 869.504 1628.13 910.128 1643.69 943.082 1674.82 968.367 1699.25 988.14 1726.91 998.026 1757.8 998.026 1775.52 998.026 1794.79 993.892 1815.63 985.623L1815.63 909.229C1809.51 916.709 1803.39 922.259 1797.28 925.878 1785.89 932.753 1773.66 936.191 1760.59 936.191 1744.04 936.191 1729.65 931.205 1717.42 921.233 1701.95 908.616 1694.22 891.373 1694.22 869.504 1694.22 847.514 1701.95 830.211 1717.42 817.595 1729.65 807.622 1744.04 802.636 1760.59 802.636 1773.66 802.636 1785.89 806.074 1797.28 812.949 1803.51 816.69 1809.63 822.24 1815.63 829.599L1815.63 753.204C1794.43 744.936 1775.34 740.801 1758.33 740.801ZM1541.77 740.801C1510.52 740.801 1482.69 750.688 1458.26 770.46 1427.13 795.745 1411.57 828.76 1411.57 869.504 1411.57 910.128 1427.13 943.082 1458.26 968.367 1482.69 988.14 1510.35 998.026 1541.24 998.026 1558.96 998.026 1578.23 993.892 1599.06 985.623L1599.06 909.229C1592.95 916.709 1586.83 922.259 1580.72 925.878 1569.33 932.753 1557.1 936.191 1544.03 936.191 1527.48 936.191 1513.09 931.205 1500.86 921.233 1485.39 908.616 1477.66 891.373 1477.66 869.504 1477.66 847.514 1485.39 830.211 1500.86 817.595 1513.09 807.622 1527.48 802.636 1544.03 802.636 1557.1 802.636 1569.33 806.074 1580.72 812.949 1586.95 816.69 1593.07 822.24 1599.06 829.599L1599.06 753.204C1577.87 744.936 1558.78 740.801 1541.77 740.801ZM949.547 538.5 1648.45 538.5C1873.81 538.5 2056.5 721.349 2056.5 946.904L2056.5 1402.5 541.5 1402.5 541.5 946.904C541.5 721.349 724.189 538.5 949.547 538.5Z" stroke="#000000" stroke-width="6.875" stroke-miterlimit="8" fill="#FFFFFF" fill-rule="evenodd"/><path d="M429 671 2038.97 671C2109.68 671 2167 728.32 2167 799.028L2167 1324 557.027 1324C486.32 1324 429 1266.68 429 1195.97L429 671Z" stroke="#FFFFFF" stroke-width="35.5208" stroke-miterlimit="8" fill="none" fill-rule="evenodd"/></g></svg>